# xmcd
#
# Track frame offsets:
#	150
#	20205
#	39597
#	56221
#	74298
#	92471
#	109511
#	127901
#	142927
#	161667
#	182191
#	214873
#	232394
#	247832
#	269806
#	294398
#	310656
#
# Disc length: 4673 seconds
#
# Revision: 2
# Processed by: cddbd v1.5.2PL0 Copyright (c) Steve Scherf et al.
# Submitted via: audiograbber 1.83.01
#
DISCID=fc123f11
DTITLE=Inga Rumpf - Rock 'n' Roll Preacher - Best
DYEAR=2001
DGENRE=Rock/Blues
TTITLE0=Inga Rumpf - Undercover Agent Of The Blues
TTITLE1=Abi Wallenstein and Friends - The Hunter
TTITLE2=Atlantis - Rock 'n' Roll Preacher
TTITLE3=Inga Rumpf - Only God Makes Stars
TTITLE4=Inga Rumpf - What Would I Do?
TTITLE5=Atlantis - Get On Board
TTITLE6=Inga Rumpf and NDR Bigband - Freedom
TTITLE7=Frumpy - Indian Rope Man
TTITLE8=Inga Rumpf - (It's A) Man's World
TTITLE9=Inga Rumpf - Superstition
TTITLE10=Inga Rumpf - One Step From The Dark
TTITLE11=Inga Rumpf - Over The Hill
TTITLE12=Inga Rumpf and Lovetrain - Let's Feel Alright (live)
TTITLE13=Frumpy - Hold On
TTITLE14=Inga Rumpf - When The Night Comes
TTITLE15=City Preachers - Pure Religion
TTITLE16=Frumpy - How The Gypsy Was Born
EXTD=
EXTT0=
EXTT1=
EXTT2=
EXTT3=
EXTT4=
EXTT5=
EXTT6=
EXTT7=
EXTT8=
EXTT9=
EXTT10=
EXTT11=
EXTT12=
EXTT13=
EXTT14=
EXTT15=
EXTT16=
PLAYORDER=
